<svg width="24" height="24" viewBox="0 0 24 24" fill="none" xmlns="http://www.w3.org/2000/svg">
<path d="M12.9396 19.959C8.72395 21.9501 4.25069 19.9121 2.82206 18.6706C2.0492 20.2167 1.39343 21.2708 1.04213 23.6133C0.953502 24.2043 0.0116398 24.1053 0.0116397 23.4025C0.128741 20.9897 1.51053 18.9517 1.97894 17.9444C3.65591 14.8926 4.59166 13.8332 6.69814 11.4485L6.73323 11.4087C9.26261 8.83194 10.7849 7.4967 13.9701 5.7398C14.298 5.57582 14.5556 5.45869 14.7195 5.22444C14.9069 4.77936 14.579 4.42798 14.2745 4.47483C13.9935 4.51808 13.9232 4.54271 13.689 4.66223C10.2463 6.41913 8.67711 7.94178 6.03063 10.6123C4.20385 12.7908 3.33731 13.681 1.81499 16.3749C1.55737 16.6794 1.25291 16.656 1.04213 16.4686C0.686139 16.0563 0.355136 15.1177 0.245841 14.7117C-0.0586207 13.5806 -0.292823 11.1979 0.901605 8.43371C1.79264 6.37165 4.2663 4.38894 5.44512 3.70179C7.35621 2.33375 11.792 1.09436 14.0638 0.679924C17.7876 0.00058911 19.8251 -0.0462617 23.5255 0.0240143C23.9705 0.0240143 24.1813 0.539372 23.8065 0.937603C22.4013 2.57738 21.5582 3.28014 20.3872 5.27129C19.3801 6.77051 18.256 11.1432 17.9281 13.1656C16.8742 17.2182 14.3682 19.3499 12.9396 19.959Z" fill="#757575"/>
</svg>
